<svg width="53" height="84" viewBox="0 0 53 84" fill="none" xmlns="http://www.w3.org/2000/svg">
<path d="M49.3979 40.5336C49.3363 39.5889 49.1822 38.6543 48.5558 37.802C48.3401 37.5144 48.1039 37.2782 47.8472 37.0523L47.8985 35.1319C47.991 31.5274 47.2721 28.1384 45.896 25.0987V25.0679C43.6983 19.2965 44.1399 13.1862 45.1155 8.48275C45.6187 6.13105 46.2452 4.15932 46.7484 2.74214C46.8408 2.52648 46.9332 2.30055 46.9948 2.0849L47.5904 0.513672L46.1219 1.04768C45.6803 1.20172 45.1155 1.42765 44.5199 1.67412C42.6098 2.4546 40.0321 3.64585 37.3415 5.34031C32.1041 8.63679 26.5278 13.7407 24.7718 21.2066H24.5869C24.4021 18.0128 24.9669 15.0963 25.963 12.457L26.343 11.4814L25.3058 11.4506C12.5203 11.1733 1.98389 21.2579 1.69634 34.0844L1.645 36.5594C1.44988 36.7442 1.2753 36.9393 1.10072 37.155C0.474283 37.9663 0.0943158 39.0035 0.0635075 39.9483C0.0635075 41.0471 0.0326966 42.1768 0.0326966 43.2756V43.3988C0.00188826 44.4668 0.00188952 45.5041 0.00188952 46.531C-0.0289188 47.4758 0.320243 48.133 0.813176 48.5335C0.967217 48.667 1.16233 48.7595 1.36772 48.8313L0.936408 68.9081C0.936408 69.8221 1.05964 72.6975 1.21368 73.6115C2.6206 77.5036 4.84906 79.0337 8.86441 80.913C12.8798 82.7924 18.0145 83.6447 23.4675 83.8296H23.5292C23.56 83.8296 23.6216 83.8296 23.714 83.8296C23.8989 83.8604 24.1556 83.8604 24.4637 83.8604C25.0901 83.8604 26.0041 83.8604 27.0618 83.8296C29.2287 83.7372 32.1041 83.4496 35.0207 82.7616C37.9064 82.0427 40.8845 80.9131 43.1746 79.003C45.4955 77.062 47.0667 74.392 47.1283 70.7258L47.5904 49.6016C47.9293 49.5502 48.2272 49.4167 48.4736 49.2216C48.9768 48.8416 49.2849 48.2152 49.3157 47.2807C49.3363 45.1446 49.3054 42.7929 49.3979 40.5336Z" fill="#12151D"/>
<path d="M5.14717 70.6336V48.2154C4.58235 44.046 4.45912 39.969 5.46552 36.0564C6.84163 16.7499 21.1983 11.7897 28.0994 11.7897C28.0994 13.515 27.5037 19.5021 28.0685 21.823C34.9593 6.64474 45.3315 2.22888 49.9424 1.66406C48.5663 3.04017 47.0567 10.2801 46.4919 13.7306C46.3995 19.2145 48.2172 24.6368 49.9424 29.2478C51.3185 34.7624 52.1401 46.3669 50.4148 49.8072L49.9424 70.5925C48.5663 81.6219 34.4253 83.2239 27.5243 82.6591C8.5977 80.9749 5.71199 75.2343 5.14717 70.6336Z" fill="#EAF2FF"/>
<path fill-rule="evenodd" clip-rule="evenodd" d="M5.08794 36.3333L5.14955 33.5708C5.42683 20.7545 15.9633 10.6597 28.759 10.9369L29.7962 10.9678L29.4162 11.9434C28.4098 14.5723 27.845 17.4888 28.0401 20.6929H28.225C29.981 13.227 35.5573 8.12312 40.7948 4.82663C43.4956 3.13218 46.063 1.94092 47.9731 1.16045C48.5687 0.913981 49.1335 0.688052 49.5751 0.534011L51.0436 0L50.448 1.57122C50.3864 1.78688 50.294 2.01281 50.2016 2.22847C49.6984 3.63538 49.0719 5.61738 48.5687 7.96908C47.5931 12.6725 47.1618 18.7828 49.3492 24.5542V24.585C50.7253 27.6248 51.4544 31.0137 51.3517 34.6183L51.2901 36.9391L49.8524 36.1279L49.8832 34.5874V34.5566C49.9756 31.1369 49.2876 27.9739 48.0039 25.119V25.0882L47.9731 25.0266C45.6214 18.9163 46.1246 12.4568 47.131 7.661C47.5726 5.62765 48.1066 3.87158 48.5687 2.4852C48.5379 2.4852 48.5071 2.51601 48.5071 2.51601C46.6586 3.26568 44.1529 4.42612 41.5444 6.05896C36.307 9.34518 30.9464 14.3875 29.5086 21.5966L29.3854 22.2231L26.6846 22.069L26.6229 21.4426C26.3457 18.1461 26.777 15.1371 27.691 12.4157C16.1584 12.693 6.8132 21.9766 6.56674 33.6427L6.53593 35.5836L5.08794 36.3333ZM6.27919 48.1226L5.83761 68.4047C5.8068 69.2468 5.93003 72.0093 6.08407 72.7897C6.40242 74.4226 9.21625 77.2775 12.9132 79.0233C16.641 80.7794 21.5704 81.6214 26.9618 81.8166H26.9926H27.0234C27.0543 81.8166 27.1159 81.8166 27.2083 81.8166C27.3623 81.8166 27.6191 81.8166 27.9272 81.8474C28.5228 81.8474 29.3957 81.8474 30.4637 81.8166C32.5689 81.7241 35.352 81.4674 38.1452 80.8102C40.9385 80.1221 43.6907 79.0541 45.7344 77.3596C47.7369 75.6652 49.0924 73.3751 49.1541 70.1813L49.6265 48.6463H51.0745L50.6021 70.2121C50.5404 73.8783 48.9692 76.5484 46.6483 78.4893C44.3582 80.3994 41.3801 81.529 38.4944 82.2479C35.5779 82.9359 32.6922 83.2235 30.5356 83.3159C29.4676 83.3467 28.5639 83.3467 27.9374 83.3467C27.6191 83.3467 27.3726 83.3467 27.1878 83.3159C27.0953 83.3159 27.0337 83.3159 27.0029 83.3159H26.9413C21.4882 83.1311 16.3432 82.2787 12.3382 80.3994C8.33308 78.5201 6.10461 76.9797 4.68743 73.0978C4.53339 72.1838 4.41016 69.3084 4.41016 68.3944L4.85174 47.9274L6.27919 48.1226Z" fill="#12151D"/>
<path d="M6.71004 36.2101C6.71004 36.2101 3.91675 36.8982 4.574 42.762C4.574 42.762 3.35193 48.595 7.58294 47.1778C7.58294 47.1778 26.9203 41.9404 49.4925 47.8351C49.4925 47.8351 52.4398 49.4371 51.8134 44.6721C51.8134 44.6721 53.4462 36.8673 48.2396 36.1793C48.2499 36.2101 29.8471 29.4733 6.71004 36.2101Z" fill="#EAF2FF"/>
<path d="M52.0075 37.2775C51.381 36.4354 50.5389 35.8706 49.6558 35.6139C35.6482 31.8861 21.004 31.691 6.92463 35.0183C6.01065 35.2031 5.16856 35.8296 4.54212 36.6511C3.91569 37.4624 3.53572 38.4996 3.50491 39.4444C3.50491 40.5432 3.47411 41.6729 3.47411 42.7717V42.8949C3.4433 43.9629 3.4433 45.0002 3.4433 46.0271C3.41249 46.9719 3.76165 47.6291 4.25458 48.0296C4.75778 48.4404 5.50745 48.5945 6.42143 48.4096C20.7473 44.9591 35.638 45.2158 49.8714 49.0052C50.7854 49.2517 51.4426 49.0977 51.9356 48.728C52.4388 48.348 52.7469 47.7216 52.7777 46.787C52.7777 44.6202 52.7469 42.2685 52.8393 40.0195C52.7982 39.0644 52.6339 38.1196 52.0075 37.2775ZM51.0729 45.0207C51.0421 45.7396 51.0421 46.6535 50.5697 46.9308C50.0973 47.2081 48.9985 46.9308 48.1564 46.746C34.9602 43.8603 21.1375 43.6754 7.83862 46.3044C6.99652 46.4584 5.95931 46.746 5.48692 46.4276C5.04533 46.1503 5.04533 45.2055 5.07614 44.5175C5.07614 43.737 5.10695 42.9155 5.10695 42.135V42.0426C5.13776 41.2005 5.13775 40.3789 5.13775 39.5368C5.16856 38.818 5.51772 38.0683 6.11335 37.4008C6.26739 37.2467 6.49332 37.0824 6.73979 36.9284C7.42784 36.4868 8.20831 36.2095 8.99906 36.0863C23.3865 33.5189 33.8614 33.673 47.9305 36.7743C49.1834 37.1235 49.5941 37.37 50.159 37.9348C50.6622 38.438 50.8778 38.9412 50.9702 39.6909C51.0319 40.04 51.0319 40.3789 51.0319 40.7281C51.0421 42.289 51.0729 43.4803 51.0729 45.0207Z" fill="#12151D"/>
<path d="M42.7325 42.536C42.7017 42.4744 42.7017 42.4436 42.6709 42.3819C42.6401 42.2895 42.5785 42.1971 42.5168 42.1047C42.4552 42.0122 42.3936 41.9198 42.332 41.8274L42.2088 41.7042L42.0855 41.5809C41.7364 41.2318 41.2742 40.9237 40.7402 40.6669C40.2062 40.4205 39.6414 40.2254 39.0458 40.0713L38.6042 39.9789C38.4501 39.9481 38.3269 39.9173 38.1626 39.9173L37.721 39.8557C37.6594 39.8557 37.567 39.8249 37.5054 39.8249H37.2589L36.7865 39.794C36.6325 39.794 36.4681 39.794 36.3141 39.794C36.1601 39.794 35.9957 39.794 35.8417 39.8249C35.6877 39.8249 35.5234 39.8557 35.4001 39.8865C34.4553 40.0405 33.6132 40.3589 32.956 40.8004C32.9868 40.7388 33.0176 40.6464 33.0792 40.5848C33.2025 40.3691 33.3565 40.1432 33.49 39.9584C33.5824 39.8659 33.644 39.7735 33.7057 39.6811C33.7365 39.6503 33.7673 39.5887 33.8289 39.527L33.9521 39.4038C34.0138 39.3114 34.137 39.219 34.2294 39.1265C34.3218 39.0341 34.4143 38.9417 34.5067 38.8493L34.6607 38.726C34.7223 38.6952 34.7531 38.6336 34.8148 38.6028L34.9688 38.4796C35.0304 38.4487 35.0612 38.4179 35.1228 38.3563C35.3385 38.2023 35.5644 38.079 35.7801 37.9764C35.9033 37.9147 36.0266 37.8839 36.1292 37.8223C36.1909 37.7915 36.2525 37.7915 36.3141 37.7607C36.3757 37.7299 36.4373 37.7299 36.4989 37.6991L36.5914 37.6683C36.6222 37.6375 36.6838 37.6375 36.7146 37.5758C36.7454 37.545 36.7762 37.5142 36.807 37.4526C36.807 37.4218 36.8378 37.391 36.807 37.3294C36.7762 37.2678 36.7454 37.237 36.653 37.2061C36.6222 37.2061 36.5914 37.1753 36.5606 37.1753C36.499 37.1445 36.4373 37.1445 36.3757 37.1445C36.3141 37.1445 36.2525 37.1445 36.1601 37.1445H36.0368H35.9136C35.5952 37.1753 35.2564 37.2678 34.9072 37.4218C34.558 37.5758 34.2499 37.771 33.9008 37.9866L33.6851 38.1715C33.6235 38.2331 33.5311 38.2947 33.4695 38.3563L33.2538 38.5412C33.223 38.572 33.1922 38.6028 33.1614 38.6336L33.069 38.726L32.8533 38.9417C32.7917 39.0033 32.7301 39.0957 32.6685 39.1573C32.6068 39.219 32.5452 39.3114 32.4836 39.4038C32.422 39.4962 32.3604 39.5578 32.3296 39.6503C31.9188 40.2767 31.7031 40.9031 31.7031 41.468C31.7031 41.5912 31.7031 41.7144 31.7339 41.8479C31.7339 41.9095 31.7647 42.002 31.7956 42.0636C31.7956 42.0944 31.7956 42.1252 31.8264 42.156C31.8572 42.2176 31.9188 42.2484 31.9804 42.3101C32.042 42.3409 32.1344 42.3717 32.2269 42.3717C32.3193 42.3717 32.4117 42.3717 32.4733 42.3409L32.5349 42.3101C32.9457 42.1868 33.377 42.0328 33.7878 41.8993C34.1986 41.776 34.5991 41.6836 34.9791 41.5809C35.359 41.4885 35.7596 41.4577 36.1395 41.3961C36.3244 41.3961 36.5195 41.3653 36.7043 41.3653C36.7968 41.3653 36.8892 41.3653 36.9816 41.3653H37.2589C37.4437 41.3653 37.6697 41.3961 37.8853 41.3961C38.101 41.3961 38.2961 41.4269 38.5118 41.4577L38.8301 41.5193C38.9225 41.5193 39.015 41.5501 39.1485 41.5809L39.4668 41.6425C39.5592 41.6733 39.6517 41.7042 39.7441 41.7042C40.1549 41.7966 40.5246 41.9506 40.8737 42.1149C41.0586 42.2074 41.2537 42.2998 41.4077 42.3922C41.5002 42.4538 41.5926 42.4846 41.6542 42.5463C41.7466 42.6079 41.8083 42.6695 41.9007 42.7003L42.0547 42.7927C42.1163 42.8235 42.2088 42.8543 42.2704 42.8543C42.3628 42.8543 42.4244 42.8543 42.5168 42.8235C42.5785 42.7927 42.6401 42.7619 42.6709 42.7311C42.7017 42.7003 42.7325 42.6387 42.7017 42.5771C42.7633 42.6387 42.7633 42.6079 42.7325 42.536Z" fill="#12151D"/>
<path d="M19.4122 42.8535C21.199 42.8535 22.6368 41.4055 22.6368 39.6289C22.6368 37.842 21.1888 36.4043 19.4122 36.4043C17.6253 36.4043 16.1876 37.8523 16.1876 39.6289C16.1773 41.4055 17.6253 42.8535 19.4122 42.8535Z" fill="#12151D"/>
<path d="M17.7792 39.7224C18.2618 39.7224 18.6521 39.3321 18.6521 38.8495C18.6521 38.3668 18.2618 37.9766 17.7792 37.9766C17.2965 37.9766 16.9062 38.3668 16.9062 38.8495C16.9062 39.3219 17.2965 39.7224 17.7792 39.7224Z" fill="#EAF2FF"/>
<path d="M44.2631 52.7637C44.1706 53.2669 44.0166 53.8933 43.8523 54.6122C43.3799 56.5223 42.5994 59.0999 41.4082 61.6981C39.0359 66.956 35.0514 72.1626 28.6843 72.9739C22.3173 73.7852 17.7782 69.8109 14.7384 65.4156C13.2288 63.218 12.1095 60.9689 11.3803 59.2745C11.1339 58.6789 10.9079 58.1449 10.7539 57.7341C11.0312 57.7957 11.3495 57.8265 11.7295 57.8881C13.2699 58.1038 15.5497 58.3297 18.5998 58.2681C24.4225 58.114 32.9872 56.9228 44.2631 52.7637Z" fill="#12151D"/>
<path d="M14.6797 58.217C14.6797 58.217 16.2201 60.5687 17.627 62.1707C18.4075 63.0436 19.5371 63.516 20.6976 63.4852C24.0865 63.362 32.5177 62.448 43.0131 56.6868C43.0131 56.6868 44.2659 52.7639 43.2595 53.1747C29.2212 59.2439 14.6797 58.217 14.6797 58.217Z" fill="#EAF2FF"/>
<path d="M30.5666 66.0227C26.3972 68.0868 23.6655 70.6028 22.043 72.1638C23.9223 72.9135 26.0583 73.201 28.3792 72.9135C35.4959 71.9995 38.4124 68.5284 40.795 62.9727C38.3406 63.2294 33.7399 64.4514 30.5666 66.0227Z" fill="#EAF2FF"/>
<path d="M9.88281 57.0883C9.88281 57.0883 14.7094 74.9571 28.9429 74.115C28.9429 74.115 41.6051 73.9918 45.6204 51.9844C45.6204 51.9741 25.7696 60.4361 9.88281 57.0883ZM30.699 72.2562C29.292 72.6362 28.1932 72.6978 26.9403 72.6054C16.2499 71.8865 12.2961 59.06 12.2961 59.06C26.622 61.0318 43.546 54.295 43.546 54.295C40.4446 67.0907 34.4884 71.219 30.699 72.2562Z" fill="#12151D"/>
</svg>
