<?xml version="1.0" encoding="UTF-8"?>
<svg id="Layer_1" data-name="Layer 1" xmlns="http://www.w3.org/2000/svg" viewBox="0 0 1000 1000">
  <defs>
    <style>
      .cls-1 {
        fill: #eaf1f9;
      }

      .cls-2, .cls-3 {
        fill: #13161e;
      }

      .cls-3 {
        fill-rule: evenodd;
      }
    </style>
  </defs>
  <path class="cls-2" d="M738.16,424.81c-.64-9.79-2.24-19.48-8.73-28.31-2.24-2.98-4.68-5.43-7.34-7.77l.53-19.9c.96-37.36-6.49-72.49-20.76-103.99v-.32c-18.36-48.22-18.95-98.71-13.19-142.01h-151.01c-24.95,27.86-45.25,61.59-54.75,101.99h-1.92c-1.92-33.1,3.94-63.33,14.26-90.69l3.94-10.11-10.75-.32c-132.52-2.87-241.72,101.65-244.7,234.59l-.53,25.65c-2.02,1.92-3.83,3.94-5.64,6.17-6.49,8.41-10.43,19.16-10.75,28.95,0,11.39-.32,23.1-.32,34.49v1.28c-.32,11.07-.32,21.82-.32,32.46-.32,9.79,3.3,16.6,8.41,20.76,1.6,1.38,3.62,2.34,5.75,3.09l-4.47,208.09c0,9.47,1.28,39.28,2.87,48.75,14.58,40.34,37.68,56.2,79.3,75.68,41.62,19.48,94.84,28.31,151.36,30.23h2.55c1.92,.32,4.58,.32,7.77,.32,6.49,0,15.97,0,26.93-.32,22.46-.96,52.26-3.94,82.49-11.07,29.91-7.45,60.78-19.16,84.51-38.96,24.06-20.12,40.34-47.79,40.98-85.79l4.79-218.95c3.51-.53,6.6-1.92,9.15-3.94,5.22-3.94,8.41-10.43,8.73-20.12,.21-22.14-.11-46.51,.85-69.93h.01Z"/>
  <path class="cls-1" d="M279.49,736.81v-232.36c-5.85-43.21-7.13-85.47,3.3-126.02,14.26-200.11,163.07-251.52,234.59-251.52,0,17.88-6.17,79.94-.32,103.99,20.21-44.52,43.31-80.11,67.14-108.39h128.25c-1.79,9.16-3.29,17.57-4.43,24.51-.96,56.84,17.88,113.04,35.76,160.83,14.26,57.16,22.78,177.43,4.9,213.09l-4.9,215.43c-14.26,114.32-160.83,130.92-232.36,125.07-196.17-17.46-226.08-76.96-231.93-124.64h0Z"/>
  <path class="cls-3" d="M278.9,381.27l.64-28.63c2.49-115.29,85.08-209.33,193.55-230.28l60.3,.14-2.33,5.99c-10.43,27.25-16.28,57.48-14.26,90.69h1.92c8.9-37.86,27.29-69.86,50.1-96.67h155c-4.99,42.09-3.68,90.44,13.85,136.69v.32c14.26,31.51,21.82,66.63,20.76,103.99l-.64,24.05-14.9-8.41,.32-15.97v-.32c.96-35.44-6.17-68.23-19.48-97.82v-.32l-.32-.64c-18.54-48.16-19.96-98.4-14.99-141.57h-119.65c-26.87,28.67-48.3,63.74-56.73,106.02l-1.28,6.49-27.99-1.6-.64-6.49c-2.87-34.17,1.6-65.35,11.07-93.56-119.53,2.87-216.39,99.1-218.95,220.01l-.32,20.12-15.01,7.77h-.02Zm12.35,122.19l-4.58,210.22c-.32,8.73,.96,37.36,2.55,45.45,3.3,16.92,32.46,46.51,70.78,64.61,38.64,18.2,89.73,26.93,145.61,28.95h2.55c1.6,0,4.26,0,7.45,.32,6.17,0,15.22,0,26.29-.32,21.82-.96,50.67-3.62,79.62-10.43,28.95-7.13,57.48-18.2,78.66-35.76,20.76-17.56,34.81-41.3,35.44-74.4l4.9-223.2h15.01l-4.9,223.52c-.64,38-16.92,65.67-40.98,85.79-23.74,19.8-54.6,31.51-84.51,38.96-30.23,7.13-60.14,10.11-82.49,11.07-11.07,.32-20.44,.32-26.93,.32-3.3,0-5.85,0-7.77-.32h-2.55c-56.52-1.92-109.85-10.75-151.36-30.23s-64.61-35.44-79.3-75.68c-1.6-9.47-2.87-39.28-2.87-48.75l4.58-212.13,14.8,2.02h0Z"/>
  <path class="cls-1" d="M295.72,380s-28.95,7.13-22.14,67.91c0,0-12.67,60.46,31.19,45.77,0,0,200.43-54.29,434.38,6.81,0,0,30.55,16.6,24.06-32.78,0,0,16.92-80.89-37.04-88.03,.11,.32-190.63-69.51-430.44,.32h-.01Z"/>
  <path class="cls-2" d="M765.21,391.06c-6.49-8.73-15.22-14.58-24.37-17.24-145.18-38.64-296.97-40.66-442.89-6.17-9.47,1.92-18.2,8.41-24.69,16.92-6.49,8.41-10.43,19.16-10.75,28.95,0,11.39-.32,23.1-.32,34.49v1.28c-.32,11.07-.32,21.82-.32,32.46-.32,9.79,3.3,16.6,8.41,20.76,5.22,4.26,12.99,5.86,22.46,3.94,148.48-35.76,302.82-33.1,450.35,6.17,9.47,2.55,16.28,.96,21.39-2.87,5.22-3.94,8.41-10.43,8.73-20.12,0-22.46-.32-46.83,.64-70.14-.43-9.9-2.13-19.69-8.62-28.42h-.02Zm-9.69,80.25c-.32,7.45-.32,16.92-5.22,19.8-4.9,2.87-16.28,0-25.01-1.92-136.77-29.91-280.04-31.83-417.88-4.58-8.73,1.6-19.48,4.58-24.37,1.28-4.58-2.87-4.58-12.67-4.26-19.8,0-8.09,.32-16.6,.32-24.69v-.96c.32-8.73,.32-17.24,.32-25.97,.32-7.45,3.94-15.22,10.11-22.14,1.6-1.6,3.94-3.3,6.49-4.9,7.13-4.58,15.22-7.45,23.42-8.73,149.12-26.61,257.69-25.01,403.51,7.13,12.99,3.62,17.24,6.17,23.1,12.03,5.22,5.22,7.45,10.43,8.41,18.2,.64,3.62,.64,7.13,.64,10.75,.11,16.18,.42,28.53,.42,44.49h0Z"/>
  <path class="cls-2" d="M669.08,445.56c-.32-.64-.32-.96-.64-1.6-.32-.96-.96-1.92-1.6-2.87-.64-.96-1.28-1.92-1.92-2.87l-1.28-1.28-1.28-1.28c-3.62-3.62-8.41-6.81-13.94-9.47-5.53-2.55-11.39-4.58-17.56-6.17l-4.58-.96c-1.6-.32-2.87-.64-4.58-.64l-4.58-.64c-.64,0-1.6-.32-2.23-.32h-2.55l-4.9-.32h-4.9c-1.6,0-3.3,0-4.9,.32-1.6,0-3.3,.32-4.58,.64-9.79,1.6-18.52,4.9-25.33,9.47,.32-.64,.64-1.6,1.28-2.23,1.28-2.24,2.87-4.58,4.26-6.49,.96-.96,1.6-1.92,2.24-2.87,.32-.32,.64-.96,1.28-1.6l1.28-1.28c.64-.96,1.92-1.92,2.87-2.87,.96-.96,1.92-1.92,2.87-2.87l1.6-1.28c.64-.32,.96-.96,1.6-1.28l1.6-1.28c.64-.32,.96-.64,1.6-1.28,2.24-1.6,4.58-2.87,6.81-3.94,1.28-.64,2.55-.96,3.62-1.6,.64-.32,1.28-.32,1.92-.64,.64-.32,1.28-.32,1.92-.64l.96-.32c.32-.32,.96-.32,1.28-.96,.32-.32,.64-.64,.96-1.28,0-.32,.32-.64,0-1.28s-.64-.96-1.6-1.28c-.32,0-.64-.32-.96-.32-.64-.32-1.28-.32-1.92-.32h-4.79c-3.3,.32-6.81,1.28-10.43,2.87-3.62,1.6-6.81,3.62-10.43,5.85l-2.24,1.92c-.64,.64-1.6,1.28-2.23,1.92l-2.24,1.92-.96,.96-.96,.96-2.24,2.24c-.64,.64-1.28,1.6-1.92,2.23-.64,.64-1.28,1.6-1.92,2.55s-1.28,1.6-1.6,2.55c-4.26,6.49-6.49,12.98-6.49,18.84,0,1.28,0,2.55,.32,3.94,0,.64,.32,1.6,.64,2.24,0,.32,0,.64,.32,.96,.32,.64,.96,.96,1.6,1.6,.64,.32,1.6,.64,2.55,.64s1.92,0,2.55-.32l.64-.32c4.26-1.28,8.73-2.87,12.99-4.26,4.26-1.28,8.41-2.24,12.35-3.3,3.94-.96,8.09-1.28,12.03-1.92,1.92,0,3.94-.32,5.85-.32h5.75c1.92,0,4.26,.32,6.49,.32s4.26,.32,6.49,.64l3.3,.64c.96,0,1.92,.32,3.3,.64l3.3,.64c.96,.32,1.92,.64,2.87,.64,4.26,.96,8.09,2.55,11.71,4.26,1.92,.96,3.94,1.92,5.53,2.87,.96,.64,1.92,.96,2.55,1.6,.96,.64,1.6,1.28,2.55,1.6l1.6,.96c.64,.32,1.6,.64,2.24,.64,.96,0,1.6,0,2.55-.32,.64-.32,1.28-.64,1.6-.96,.32-.32,.64-.96,.32-1.6,.64,.64,.64,.32,.32-.43h.02Z"/>
  <path class="cls-2" d="M427.37,448.85c18.52,0,33.42-15.01,33.42-33.42s-15.01-33.42-33.42-33.42-33.42,15.01-33.42,33.42c-.11,18.41,14.9,33.42,33.42,33.42h0Z"/>
  <path class="cls-1" d="M410.44,416.4c5,0,9.05-4.05,9.05-9.05s-4.05-9.05-9.05-9.05-9.05,4.04-9.05,9.05,4.05,9.05,9.05,9.05Z"/>
  <path class="cls-2" d="M684.94,551.57c-.96,5.22-2.55,11.71-4.26,19.16-4.9,19.8-12.99,46.51-25.33,73.44-24.59,54.5-65.89,108.46-131.88,116.87s-113.04-32.78-144.54-78.34c-15.65-22.78-27.25-46.09-34.81-63.65-2.55-6.17-4.9-11.71-6.49-15.97,2.87,.64,6.17,.96,10.11,1.6,15.97,2.24,39.6,4.58,71.21,3.94,60.35-1.6,149.12-13.94,265.99-57.05h0Z"/>
  <path class="cls-1" d="M378.32,608.09s15.97,24.37,30.55,40.98c8.09,9.05,19.8,13.94,31.83,13.62,35.12-1.28,122.51-10.75,231.29-70.46,0,0,12.98-40.66,2.55-36.4-145.5,62.91-296.22,52.26-296.22,52.26h0Z"/>
  <path class="cls-1" d="M542.98,688.99c-43.21,21.39-71.53,47.47-88.34,63.65,19.48,7.77,41.62,10.75,65.67,7.77,73.76-9.47,103.99-45.45,128.69-103.03-25.44,2.66-73.12,15.33-106.01,31.61h-.01Z"/>
  <path class="cls-2" d="M328.6,596.39s50.03,185.2,197.55,176.48c0,0,131.24-1.28,172.86-229.38,0-.11-205.75,87.6-370.41,52.9Zm215.75,157.21c-14.58,3.94-25.97,4.58-38.96,3.62-110.8-7.45-151.78-140.39-151.78-140.39,148.48,20.44,323.9-49.39,323.9-49.39-32.15,132.62-93.88,175.41-133.16,186.16h0Z"/>
</svg>